<svg xmlns="http://www.w3.org/2000/svg" xmlns:xlink="http://www.w3.org/1999/xlink" width="1080" zoomAndPan="magnify" viewBox="0 0 810 809.999993" height="1080" preserveAspectRatio="xMidYMid meet" version="1.0"><defs><g/></defs><g fill="#000000" fill-opacity="1"><g transform="translate(282.505859, 429.628505)"><g><path d="M 23.296875 0.5625 C 19.273438 0.5625 15.660156 -0.265625 12.453125 -1.921875 C 9.253906 -3.585938 6.753906 -5.894531 4.953125 -8.84375 C 3.148438 -11.789062 2.25 -15.132812 2.25 -18.875 C 2.25 -22.613281 3.148438 -25.957031 4.953125 -28.90625 C 6.753906 -31.851562 9.253906 -34.15625 12.453125 -35.8125 C 15.660156 -37.476562 19.273438 -38.3125 23.296875 -38.3125 C 27.273438 -38.3125 30.75 -37.476562 33.71875 -35.8125 C 36.6875 -34.15625 38.847656 -31.785156 40.203125 -28.703125 L 31.71875 -24.140625 C 29.75 -27.597656 26.921875 -29.328125 23.234375 -29.328125 C 20.378906 -29.328125 18.015625 -28.390625 16.140625 -26.515625 C 14.265625 -24.648438 13.328125 -22.101562 13.328125 -18.875 C 13.328125 -15.644531 14.265625 -13.09375 16.140625 -11.21875 C 18.015625 -9.351562 20.378906 -8.421875 23.234375 -8.421875 C 26.972656 -8.421875 29.800781 -10.148438 31.71875 -13.609375 L 40.203125 -8.984375 C 38.847656 -5.984375 36.6875 -3.640625 33.71875 -1.953125 C 30.75 -0.273438 27.273438 0.5625 23.296875 0.5625 Z M 23.296875 0.5625 "/></g></g></g><g fill="#000000" fill-opacity="1"><g transform="translate(323.978942, 429.628505)"><g><path d="M 20.28125 -38.3125 C 26.125 -38.3125 30.613281 -36.921875 33.75 -34.140625 C 36.882812 -31.359375 38.453125 -27.160156 38.453125 -21.546875 L 38.453125 0 L 28.203125 0 L 28.203125 -4.703125 C 26.148438 -1.191406 22.316406 0.5625 16.703125 0.5625 C 13.796875 0.5625 11.28125 0.0703125 9.15625 -0.90625 C 7.03125 -1.894531 5.40625 -3.253906 4.28125 -4.984375 C 3.15625 -6.710938 2.59375 -8.675781 2.59375 -10.875 C 2.59375 -14.382812 3.914062 -17.144531 6.5625 -19.15625 C 9.207031 -21.164062 13.289062 -22.171875 18.8125 -22.171875 L 27.5 -22.171875 C 27.5 -24.554688 26.773438 -26.390625 25.328125 -27.671875 C 23.878906 -28.960938 21.707031 -29.609375 18.8125 -29.609375 C 16.789062 -29.609375 14.8125 -29.289062 12.875 -28.65625 C 10.9375 -28.03125 9.285156 -27.179688 7.921875 -26.109375 L 4 -33.75 C 6.0625 -35.195312 8.53125 -36.316406 11.40625 -37.109375 C 14.28125 -37.910156 17.238281 -38.3125 20.28125 -38.3125 Z M 19.4375 -6.8125 C 21.3125 -6.8125 22.972656 -7.242188 24.421875 -8.109375 C 25.867188 -8.972656 26.894531 -10.242188 27.5 -11.921875 L 27.5 -15.78125 L 20 -15.78125 C 15.507812 -15.78125 13.265625 -14.3125 13.265625 -11.375 C 13.265625 -9.96875 13.8125 -8.851562 14.90625 -8.03125 C 16.007812 -7.21875 17.519531 -6.8125 19.4375 -6.8125 Z M 19.4375 -6.8125 "/></g></g></g><g fill="#000000" fill-opacity="1"><g transform="translate(367.276566, 429.628505)"><g><path d="M 17.75 0.5625 C 14.613281 0.5625 11.546875 0.175781 8.546875 -0.59375 C 5.554688 -1.363281 3.175781 -2.335938 1.40625 -3.515625 L 5.046875 -11.375 C 6.734375 -10.289062 8.769531 -9.410156 11.15625 -8.734375 C 13.539062 -8.054688 15.878906 -7.71875 18.171875 -7.71875 C 22.804688 -7.71875 25.125 -8.863281 25.125 -11.15625 C 25.125 -12.226562 24.488281 -13 23.21875 -13.46875 C 21.957031 -13.9375 20.019531 -14.335938 17.40625 -14.671875 C 14.3125 -15.140625 11.757812 -15.675781 9.75 -16.28125 C 7.738281 -16.882812 5.992188 -17.957031 4.515625 -19.5 C 3.046875 -21.050781 2.3125 -23.253906 2.3125 -26.109375 C 2.3125 -28.492188 3 -30.609375 4.375 -32.453125 C 5.757812 -34.296875 7.773438 -35.734375 10.421875 -36.765625 C 13.066406 -37.796875 16.1875 -38.3125 19.78125 -38.3125 C 22.445312 -38.3125 25.101562 -38.019531 27.75 -37.4375 C 30.394531 -36.851562 32.582031 -36.046875 34.3125 -35.015625 L 30.671875 -27.234375 C 27.347656 -29.097656 23.71875 -30.03125 19.78125 -30.03125 C 17.445312 -30.03125 15.691406 -29.703125 14.515625 -29.046875 C 13.347656 -28.390625 12.765625 -27.550781 12.765625 -26.53125 C 12.765625 -25.351562 13.394531 -24.53125 14.65625 -24.0625 C 15.925781 -23.601562 17.941406 -23.160156 20.703125 -22.734375 C 23.785156 -22.222656 26.304688 -21.671875 28.265625 -21.078125 C 30.234375 -20.492188 31.941406 -19.429688 33.390625 -17.890625 C 34.847656 -16.347656 35.578125 -14.195312 35.578125 -11.4375 C 35.578125 -9.09375 34.875 -7.007812 33.46875 -5.1875 C 32.0625 -3.363281 30.015625 -1.945312 27.328125 -0.9375 C 24.640625 0.0625 21.445312 0.5625 17.75 0.5625 Z M 17.75 0.5625 "/></g></g></g><g fill="#000000" fill-opacity="1"><g transform="translate(404.539184, 429.628505)"><g><path d="M 27.359375 -38.3125 C 30.867188 -38.3125 34.0625 -37.503906 36.9375 -35.890625 C 39.820312 -34.273438 42.082031 -32.003906 43.71875 -29.078125 C 45.351562 -26.160156 46.171875 -22.757812 46.171875 -18.875 C 46.171875 -14.988281 45.351562 -11.582031 43.71875 -8.65625 C 42.082031 -5.738281 39.820312 -3.472656 36.9375 -1.859375 C 34.0625 -0.242188 30.867188 0.5625 27.359375 0.5625 C 22.546875 0.5625 18.757812 -0.957031 16 -4 L 16 13.609375 L 5.046875 13.609375 L 5.046875 -37.75 L 15.515625 -37.75 L 15.515625 -33.40625 C 18.222656 -36.675781 22.171875 -38.3125 27.359375 -38.3125 Z M 25.46875 -8.421875 C 28.28125 -8.421875 30.582031 -9.367188 32.375 -11.265625 C 34.175781 -13.160156 35.078125 -15.695312 35.078125 -18.875 C 35.078125 -22.050781 34.175781 -24.585938 32.375 -26.484375 C 30.582031 -28.378906 28.28125 -29.328125 25.46875 -29.328125 C 22.664062 -29.328125 20.363281 -28.378906 18.5625 -26.484375 C 16.757812 -24.585938 15.859375 -22.050781 15.859375 -18.875 C 15.859375 -15.695312 16.757812 -13.160156 18.5625 -11.265625 C 20.363281 -9.367188 22.664062 -8.421875 25.46875 -8.421875 Z M 25.46875 -8.421875 "/></g></g></g><g fill="#000000" fill-opacity="1"><g transform="translate(452.959544, 429.628505)"><g><path d="M 42.03125 -18.734375 C 42.03125 -18.597656 41.960938 -17.613281 41.828125 -15.78125 L 13.265625 -15.78125 C 13.773438 -13.445312 14.988281 -11.597656 16.90625 -10.234375 C 18.820312 -8.878906 21.207031 -8.203125 24.0625 -8.203125 C 26.03125 -8.203125 27.773438 -8.492188 29.296875 -9.078125 C 30.816406 -9.671875 32.234375 -10.597656 33.546875 -11.859375 L 39.359375 -5.546875 C 35.804688 -1.472656 30.613281 0.5625 23.78125 0.5625 C 19.53125 0.5625 15.765625 -0.265625 12.484375 -1.921875 C 9.210938 -3.585938 6.6875 -5.894531 4.90625 -8.84375 C 3.132812 -11.789062 2.25 -15.132812 2.25 -18.875 C 2.25 -22.570312 3.125 -25.90625 4.875 -28.875 C 6.632812 -31.84375 9.046875 -34.15625 12.109375 -35.8125 C 15.171875 -37.476562 18.597656 -38.3125 22.390625 -38.3125 C 26.078125 -38.3125 29.414062 -37.515625 32.40625 -35.921875 C 35.40625 -34.335938 37.757812 -32.054688 39.46875 -29.078125 C 41.175781 -26.109375 42.03125 -22.660156 42.03125 -18.734375 Z M 22.453125 -30.03125 C 19.972656 -30.03125 17.890625 -29.328125 16.203125 -27.921875 C 14.523438 -26.523438 13.5 -24.609375 13.125 -22.171875 L 31.71875 -22.171875 C 31.34375 -24.554688 30.3125 -26.460938 28.625 -27.890625 C 26.945312 -29.316406 24.890625 -30.03125 22.453125 -30.03125 Z M 22.453125 -30.03125 "/></g></g></g><g fill="#000000" fill-opacity="1"><g transform="translate(497.239615, 429.628505)"><g><path d="M 15.515625 -32.765625 C 16.816406 -34.585938 18.578125 -35.96875 20.796875 -36.90625 C 23.023438 -37.84375 25.585938 -38.3125 28.484375 -38.3125 L 28.484375 -28.203125 C 27.273438 -28.296875 26.457031 -28.34375 26.03125 -28.34375 C 22.894531 -28.34375 20.4375 -27.46875 18.65625 -25.71875 C 16.882812 -23.96875 16 -21.335938 16 -17.828125 L 16 0 L 5.046875 0 L 5.046875 -37.75 L 15.515625 -37.75 Z M 15.515625 -32.765625 "/></g></g></g></svg>