<svg xmlns="http://www.w3.org/2000/svg" xmlns:xlink="http://www.w3.org/1999/xlink" width="150" zoomAndPan="magnify" viewBox="0 0 112.5 30.000001" height="40" preserveAspectRatio="xMidYMid meet" version="1.0"><defs><g/></defs><g fill="#000000" fill-opacity="1"><g transform="translate(4.488708, 20.576902)"><g><path d="M 9.28125 -16.640625 C 10.914062 -16.640625 12.367188 -16.316406 13.640625 -15.671875 C 14.910156 -15.035156 15.90625 -14.128906 16.625 -12.953125 L 12.828125 -10.65625 C 12.015625 -11.800781 10.90625 -12.375 9.5 -12.375 C 8.476562 -12.375 7.644531 -11.988281 7 -11.21875 C 6.363281 -10.457031 6.046875 -9.457031 6.046875 -8.21875 C 6.046875 -6.957031 6.359375 -5.941406 6.984375 -5.171875 C 7.617188 -4.410156 8.457031 -4.03125 9.5 -4.03125 C 11.050781 -4.03125 12.171875 -4.648438 12.859375 -5.890625 L 16.703125 -3.640625 C 16.035156 -2.410156 15.054688 -1.460938 13.765625 -0.796875 C 12.472656 -0.140625 10.957031 0.1875 9.21875 0.1875 C 6.675781 0.1875 4.625 -0.578125 3.0625 -2.109375 C 1.507812 -3.648438 0.734375 -5.675781 0.734375 -8.1875 C 0.734375 -10.707031 1.519531 -12.742188 3.09375 -14.296875 C 4.675781 -15.859375 6.738281 -16.640625 9.28125 -16.640625 Z M 9.28125 -16.640625 "/></g></g></g><g fill="#000000" fill-opacity="1"><g transform="translate(21.653092, 20.576902)"><g><path d="M 9.5 -16.703125 C 11.757812 -16.703125 13.515625 -16.175781 14.765625 -15.125 C 16.015625 -14.082031 16.648438 -12.625 16.671875 -10.75 L 16.671875 0 L 11.515625 0 L 11.515625 -1.890625 C 10.429688 -0.460938 8.75 0.25 6.46875 0.25 C 4.738281 0.25 3.363281 -0.226562 2.34375 -1.1875 C 1.332031 -2.144531 0.828125 -3.390625 0.828125 -4.921875 C 0.828125 -6.484375 1.367188 -7.695312 2.453125 -8.5625 C 3.546875 -9.425781 5.109375 -9.867188 7.140625 -9.890625 L 11.484375 -9.890625 L 11.484375 -10.140625 C 11.484375 -10.953125 11.210938 -11.585938 10.671875 -12.046875 C 10.128906 -12.503906 9.332031 -12.734375 8.28125 -12.734375 C 6.789062 -12.734375 5.148438 -12.273438 3.359375 -11.359375 L 1.859375 -14.84375 C 4.523438 -16.082031 7.070312 -16.703125 9.5 -16.703125 Z M 8.09375 -3.328125 C 8.925781 -3.328125 9.65625 -3.535156 10.28125 -3.953125 C 10.914062 -4.367188 11.316406 -4.914062 11.484375 -5.59375 L 11.484375 -7.0625 L 8.15625 -7.0625 C 6.5625 -7.0625 5.765625 -6.46875 5.765625 -5.28125 C 5.765625 -4.675781 5.96875 -4.195312 6.375 -3.84375 C 6.789062 -3.5 7.363281 -3.328125 8.09375 -3.328125 Z M 8.09375 -3.328125 "/></g></g></g><g fill="#000000" fill-opacity="1"><g transform="translate(39.978072, 20.576902)"><g><path d="M 8 -16.703125 C 10.425781 -16.703125 12.6875 -16.082031 14.78125 -14.84375 L 12.984375 -11.421875 C 10.941406 -12.523438 9.210938 -13.078125 7.796875 -13.078125 C 6.710938 -13.078125 6.171875 -12.695312 6.171875 -11.9375 C 6.171875 -11.53125 6.460938 -11.191406 7.046875 -10.921875 C 7.640625 -10.648438 8.363281 -10.398438 9.21875 -10.171875 C 10.082031 -9.953125 10.9375 -9.671875 11.78125 -9.328125 C 12.625 -8.992188 13.335938 -8.457031 13.921875 -7.71875 C 14.515625 -6.988281 14.8125 -6.097656 14.8125 -5.046875 C 14.8125 -3.390625 14.171875 -2.097656 12.890625 -1.171875 C 11.609375 -0.242188 9.9375 0.21875 7.875 0.21875 C 4.96875 0.21875 2.503906 -0.554688 0.484375 -2.109375 L 2.171875 -5.46875 C 4.109375 -4.101562 6.050781 -3.421875 8 -3.421875 C 9.207031 -3.421875 9.8125 -3.796875 9.8125 -4.546875 C 9.8125 -4.972656 9.519531 -5.328125 8.9375 -5.609375 C 8.351562 -5.898438 7.644531 -6.15625 6.8125 -6.375 C 5.976562 -6.601562 5.144531 -6.882812 4.3125 -7.21875 C 3.476562 -7.5625 2.769531 -8.085938 2.1875 -8.796875 C 1.601562 -9.503906 1.3125 -10.398438 1.3125 -11.484375 C 1.3125 -13.128906 1.929688 -14.410156 3.171875 -15.328125 C 4.421875 -16.242188 6.03125 -16.703125 8 -16.703125 Z M 8 -16.703125 "/></g></g></g><g fill="#000000" fill-opacity="1"><g transform="translate(55.645896, 20.576902)"><g><path d="M 12.46875 -16.640625 C 14.789062 -16.640625 16.65625 -15.859375 18.0625 -14.296875 C 19.476562 -12.742188 20.1875 -10.695312 20.1875 -8.15625 C 20.1875 -5.65625 19.492188 -3.640625 18.109375 -2.109375 C 16.722656 -0.578125 14.878906 0.1875 12.578125 0.1875 C 10.421875 0.1875 8.742188 -0.609375 7.546875 -2.203125 L 7.546875 5.921875 L 2.265625 5.921875 L 2.265625 -16.46875 L 7.546875 -16.46875 L 7.546875 -14.296875 C 8.765625 -15.859375 10.40625 -16.640625 12.46875 -16.640625 Z M 11.1875 -4 C 12.28125 -4 13.164062 -4.398438 13.84375 -5.203125 C 14.53125 -6.015625 14.875 -7.050781 14.875 -8.3125 C 14.875 -9.570312 14.53125 -10.597656 13.84375 -11.390625 C 13.164062 -12.179688 12.28125 -12.578125 11.1875 -12.578125 C 10.125 -12.578125 9.25 -12.179688 8.5625 -11.390625 C 7.882812 -10.597656 7.546875 -9.570312 7.546875 -8.3125 C 7.546875 -7.03125 7.878906 -5.988281 8.546875 -5.1875 C 9.222656 -4.394531 10.101562 -4 11.1875 -4 Z M 11.1875 -4 "/></g></g></g><g fill="#000000" fill-opacity="1"><g transform="translate(76.566905, 20.576902)"><g><path d="M 9.3125 -16.640625 C 12.164062 -16.640625 14.3125 -15.765625 15.75 -14.015625 C 17.1875 -12.265625 17.8125 -9.863281 17.625 -6.8125 L 6.046875 -6.8125 C 6.316406 -5.832031 6.785156 -5.078125 7.453125 -4.546875 C 8.128906 -4.015625 8.953125 -3.75 9.921875 -3.75 C 11.429688 -3.75 12.75 -4.3125 13.875 -5.4375 L 16.640625 -2.71875 C 14.867188 -0.78125 12.476562 0.1875 9.46875 0.1875 C 6.800781 0.1875 4.675781 -0.578125 3.09375 -2.109375 C 1.519531 -3.640625 0.734375 -5.664062 0.734375 -8.1875 C 0.734375 -10.726562 1.519531 -12.769531 3.09375 -14.3125 C 4.675781 -15.863281 6.75 -16.640625 9.3125 -16.640625 Z M 5.953125 -9.65625 L 12.5625 -9.65625 C 12.5625 -10.65625 12.269531 -11.457031 11.6875 -12.0625 C 11.101562 -12.675781 10.332031 -12.984375 9.375 -12.984375 C 8.476562 -12.984375 7.722656 -12.679688 7.109375 -12.078125 C 6.503906 -11.484375 6.117188 -10.675781 5.953125 -9.65625 Z M 5.953125 -9.65625 "/></g></g></g><g fill="#000000" fill-opacity="1"><g transform="translate(94.952934, 20.576902)"><g><path d="M 7.390625 -16.46875 L 7.390625 -13.6875 C 8.554688 -15.65625 10.335938 -16.660156 12.734375 -16.703125 L 12.734375 -11.9375 C 11.234375 -12.082031 10.003906 -11.832031 9.046875 -11.1875 C 8.085938 -10.550781 7.535156 -9.644531 7.390625 -8.46875 L 7.390625 0 L 2.109375 0 L 2.109375 -16.46875 Z M 7.390625 -16.46875 "/></g></g></g></svg>